<?xml version="1.0" encoding="UTF-8" standalone="no"?>
<!-- Created with Inkscape (http://www.inkscape.org/) -->

<svg
   xmlns:dc="http://purl.org/dc/elements/1.1/"
   xmlns:cc="http://creativecommons.org/ns#"
   xmlns:rdf="http://www.w3.org/1999/02/22-rdf-syntax-ns#"
   xmlns:svg="http://www.w3.org/2000/svg"
   xmlns="http://www.w3.org/2000/svg"
   xmlns:sodipodi="http://sodipodi.sourceforge.net/DTD/sodipodi-0.dtd"
   xmlns:inkscape="http://www.inkscape.org/namespaces/inkscape"
   width="59.039307mm"
   height="59.039307mm"
   viewBox="0 0 59.039307 59.039307"
   version="1.1"
   id="svg8"
   inkscape:export-filename="/home/nick/uni/coding_dojo/github/docs/images/things_i_wish.png"
   inkscape:export-xdpi="150"
   inkscape:export-ydpi="150"
   inkscape:version="0.92.3 (2405546, 2018-03-11)"
   sodipodi:docname="drawing.svg">
  <defs
     id="defs2">
    <clipPath
       clipPathUnits="userSpaceOnUse"
       id="clipPath1181">
      <circle
         style="opacity:1;vector-effect:none;fill:none;fill-opacity:1;stroke:#000000;stroke-width:0.76500005;stroke-linecap:butt;stroke-linejoin:miter;stroke-miterlimit:4;stroke-dasharray:none;stroke-dashoffset:0;stroke-opacity:1"
         id="circle1183"
         cx="69.381775"
         cy="127.41771"
         r="29.137148" />
    </clipPath>
  </defs>
  <sodipodi:namedview
     id="base"
     pagecolor="#ffffff"
     bordercolor="#666666"
     borderopacity="1.0"
     inkscape:pageopacity="0.0"
     inkscape:pageshadow="2"
     inkscape:zoom="1.5301741"
     inkscape:cx="103.23801"
     inkscape:cy="31.897733"
     inkscape:document-units="mm"
     inkscape:current-layer="layer1"
     showgrid="false"
     fit-margin-top="0"
     fit-margin-left="0"
     fit-margin-right="0"
     fit-margin-bottom="0"
     inkscape:window-width="1853"
     inkscape:window-height="1019"
     inkscape:window-x="67"
     inkscape:window-y="27"
     inkscape:window-maximized="1" />
  <metadata
     id="metadata5">
    <rdf:RDF>
      <cc:Work
         rdf:about="">
        <dc:format>image/svg+xml</dc:format>
        <dc:type
           rdf:resource="http://purl.org/dc/dcmitype/StillImage" />
        <dc:title></dc:title>
      </cc:Work>
    </rdf:RDF>
  </metadata>
  <g
     inkscape:label="Layer 1"
     inkscape:groupmode="layer"
     id="layer1"
     transform="translate(-40.391487,-98.233635)">
    <g
       id="g1164"
       clip-path="url(#clipPath1181)">
      <path
         inkscape:connector-curvature="0"
         id="path268"
         d="m 52.300593,145.56126 v -2.64583 h -1.29461 c -1.48787,0 -1.55926,-0.10396 -1.40805,-2.05052 0.0889,-1.1445 0.19542,-1.38906 0.60498,-1.38906 0.42426,0 0.45928,-0.0994 0.23905,-0.67869 -0.14192,-0.37327 -0.25804,-1.0338 -0.25804,-1.46783 v -0.78915 l 1.65365,0.0788 1.65365,0.0788 0.009,0.8599 c 0.005,0.47294 -0.0844,0.85989 -0.19844,0.85989 -0.11407,0 -0.20741,0.23813 -0.20741,0.52917 0,0.49458 0.17639,0.52917 2.69875,0.52917 2.09903,0 2.6282,-0.0706 2.38125,-0.3175 -0.48269,-0.48269 -0.37989,-1.64849 0.21167,-2.40053 0.29104,-0.37 0.52917,-0.73843 0.52917,-0.81873 0,-0.0803 -0.98227,-0.18059 -2.18282,-0.22286 l -2.18281,-0.0768 -0.0706,-6.8091 c -0.0821,-7.91767 0.41375,-7.01967 -3.94235,-7.1397 -2.5034,-0.069 -2.76818,-0.12919 -3.81641,-0.86787 -3.34988,-2.36063 -3.02383,-7.44773 0.59488,-9.28147 1.30836,-0.663 1.49463,-0.68424 5.24166,-0.59777 3.72235,0.0859 3.93109,0.12012 4.98306,0.81676 1.22144,0.80889 1.80371,1.57629 2.30717,3.04078 0.32065,0.9327 0.39965,0.9852 1.48935,0.98978 0.89568,0.004 1.12692,-0.0831 1.04328,-0.39204 -0.9887,-3.65141 -0.47525,-5.48971 2.02392,-7.24619 1.03716,-0.72894 1.32029,-0.79203 4.06161,-0.90498 6.02293,-0.24815 8.59235,1.17011 8.84355,4.88143 l 0.10491,1.54995 -0.22755,-1.41432 c -0.2784,-1.73045 -1.30632,-3.1138 -2.93027,-3.94349 -1.03127,-0.52689 -1.55972,-0.59531 -4.59748,-0.59531 -2.95687,0 -3.59286,0.0777 -4.59161,0.56122 -2.68042,1.29757 -3.59608,5.1767 -1.74206,7.38009 1.07441,1.27686 2.68749,1.93041 5.18172,2.09941 0.10914,0.007 0.19843,0.3111 0.19843,0.6749 v 0.66146 h -4.34672 c -5.11494,0 -5.27191,-0.0638 -4.83689,-1.96478 0.35624,-1.5568 -0.0398,-2.9168 -1.1949,-4.10298 -1.36545,-1.40221 -2.14427,-1.60516 -6.15999,-1.60516 -3.09606,0 -3.73719,0.0746 -4.65236,0.54151 -2.20107,1.12291 -3.2193,4.04887 -2.23162,6.41272 0.49315,1.18029 2.07385,2.49797 3.44644,2.87299 1.05192,0.2874 6.10368,0.159 7.60677,-0.19335 l 0.72761,-0.17055 v 5.71938 5.71939 h 2.48114 c 1.88268,0 2.56059,-0.0957 2.81052,-0.39688 0.21806,-0.26274 0.81025,-0.39687 1.75219,-0.39687 1.34128,0 1.42281,-0.0379 1.42281,-0.66146 0,-0.41158 0.14993,-0.66146 0.39688,-0.66146 0.50381,0 0.49921,-0.24272 -0.0245,-1.29248 -0.32365,-0.64877 -0.40034,-1.46055 -0.33073,-3.501 l 0.0906,-2.65639 0.97387,-0.89204 c 0.95016,-0.87034 1.03,-0.89205 3.28083,-0.89205 2.26408,0 2.32344,0.0165 3.19332,0.88636 l 0.88635,0.88635 v 3.03349 c 0,2.66826 -0.066,3.11741 -0.54837,3.73062 l -0.54837,0.69714 h 0.54837 c 0.40854,0 0.54837,0.16867 0.54837,0.66146 0,0.62355 0.0815,0.66146 1.42282,0.66146 0.94194,0 1.53413,0.13413 1.75218,0.39687 0.24993,0.30115 0.92784,0.39688 2.81052,0.39688 h 2.48115 v -5.50334 c 0,-3.50172 -0.10136,-5.60469 -0.27868,-5.78201 -0.17826,-0.17826 0.36994,-0.15316 1.52135,0.0696 2.2228,0.43014 5.54498,0.46507 7.0957,0.0746 2.07392,-0.52222 3.83246,-2.75603 3.83246,-4.86823 0,-1.77632 -1.92384,-4.37047 -3.54245,-4.77671 -0.34229,-0.0859 -2.34414,-0.1174 -4.44856,-0.07 -3.7247,0.0839 -3.85205,0.10594 -4.79922,0.82916 -1.52775,1.16652 -2.12527,2.59 -1.93636,4.61301 0.14879,1.59335 0.12459,1.6896 -0.49599,1.97236 -0.70934,0.3232 -0.82855,0.97485 -0.34452,1.88336 0.27834,0.52242 0.26563,0.54305 -0.13229,0.21479 -0.2421,-0.19972 -0.44019,-0.70573 -0.44019,-1.12448 v -0.76135 h -3.83646 -3.83646 v -0.63315 c 0,-0.71906 0.43363,-0.95435 1.75883,-0.95435 1.06781,0 1.73456,-0.30874 2.95337,-1.36754 0.48165,-0.41843 0.997,-0.68583 1.14521,-0.59423 0.14821,0.0916 0.78934,0.22072 1.42472,0.28693 1.14639,0.11946 1.15734,0.11265 1.42792,-0.88833 0.46662,-1.72622 1.67219,-3.07391 3.31031,-3.70055 0.46742,-0.17881 2.35215,-0.31915 4.44181,-0.33073 3.20915,-0.0178 3.75481,0.045 4.70782,0.54173 1.88357,0.98176 2.90953,2.71395 2.94123,4.96581 0.0189,1.34365 -0.0964,1.74353 -0.79604,2.76042 -1.39103,2.0218 -2.3058,2.41173 -5.91448,2.52116 l -3.10452,0.0941 -0.0705,6.91758 -0.0705,6.91757 -2.21368,0.0773 -2.21369,0.0774 0.4939,0.54575 c 0.34054,0.37629 0.49389,0.94787 0.49389,1.84088 v 1.29514 l 2.64583,-0.0209 c 1.45521,-0.0115 2.49701,-0.0809 2.31511,-0.15434 -0.18191,-0.0734 -0.33073,-0.35184 -0.33073,-0.61875 0,-0.37695 0.54657,-0.66739 2.44805,-1.30087 3.18213,-1.06014 3.37278,-1.05427 3.37278,0.10385 0,0.8718 0.0394,0.91154 0.76142,0.76714 0.41879,-0.0838 1.01136,-0.0185 1.31683,0.14495 0.41251,0.22077 0.68021,0.21929 1.04055,-0.006 0.73479,-0.45888 4.16263,0.1768 4.8329,0.89625 0.465217,0.49935 0.514967,0.95691 0.514967,4.73619 0,3.54223 -0.0608,4.18345 -0.39688,4.18345 -0.320147,0 -0.402927,-0.44756 -0.428217,-2.31511 -0.0173,-1.2733 -0.006,-2.49369 0.0252,-2.71198 0.0311,-0.21828 -0.0332,-0.30861 -0.14274,-0.20073 -0.10959,0.10788 -0.38189,0.0483 -0.60511,-0.13229 -0.3362,-0.27206 -0.36536,-0.2613 -0.16987,0.0626 0.1298,0.2151 0.22409,0.66158 0.20954,0.99219 -0.0145,0.3306 -0.0384,1.40477 -0.053,2.38704 l -0.0265,1.78594 h -6.01923 -6.01923 l -0.0589,-0.79375 c -0.0324,-0.43657 0.0271,-0.6562 0.13229,-0.48807 0.10517,0.16812 0.19122,-0.62941 0.19122,-1.77229 0,-1.72613 -0.0755,-2.09773 -0.44594,-2.19467 -0.24526,-0.0642 -0.50941,0.0487 -0.58701,0.25093 -0.0776,0.2022 -0.0555,0.36737 0.0491,0.36703 0.10458,-2.7e-4 0.15192,1.07123 0.10522,2.38125 -0.0659,1.84863 -0.16957,2.38186 -0.46302,2.38186 -0.30255,0 -0.37811,-0.52877 -0.37811,-2.64584 v -2.64583 h -3.43958 -3.43959 v 0.90714 c 0,0.92543 -0.5525,1.73869 -1.18121,1.73869 -0.46848,0 -0.60967,0.4615 -0.50588,1.65365 0.0475,0.5457 -0.0297,0.99219 -0.1716,0.99219 -0.14188,0 -0.25797,-0.59531 -0.25797,-1.32292 v -1.32292 h -2.24896 -2.24896 v 1.32292 c 0,1.02605 -0.0933,1.32292 -0.41561,1.32292 -0.35105,0 -0.40243,-0.33915 -0.33073,-2.18281 l 0.0849,-2.18282 0.90964,-0.13229 c 0.83783,-0.12185 0.93663,-0.23672 1.25166,-1.45521 0.18812,-0.7276 0.34433,-1.70987 0.34713,-2.18281 l 0.005,-0.8599 h -3.94048 c -2.93466,0 -3.97325,0.0855 -4.06897,0.33494 -0.15815,0.41214 0.4838,3.62508 0.7819,3.91334 0.11883,0.11491 0.57324,0.24785 1.0098,0.29543 l 0.79375,0.0865 0.0849,2.18282 c 0.0717,1.84366 0.0203,2.18281 -0.33073,2.18281 -0.32235,0 -0.41561,-0.29687 -0.41561,-1.32292 v -1.32292 h -2.24896 -2.24896 v 1.32292 c 0,0.77843 -0.1187,1.32292 -0.28841,1.32292 -0.1802,0 -0.25466,-0.46966 -0.19844,-1.25176 0.0777,-1.08166 0.0181,-1.26446 -0.43919,-1.34524 -0.75165,-0.13278 -1.19062,-0.8035 -1.19062,-1.8192 v -0.87547 h -3.175 -3.175 v 2.64583 c 0,1.5875 -0.10584,2.64584 -0.26459,2.64584 -0.15875,0 -0.26458,-1.05834 -0.26458,-2.64584 0,-2.17546 -0.0705,-2.64583 -0.39688,-2.64583 -0.32632,0 -0.39687,0.47037 -0.39687,2.64583 0,2.46945 -0.0353,2.64584 -0.52917,2.64584 -0.49389,0 -0.52916,-0.17639 -0.52916,-2.64584 z m 45.77292,-0.53839 v -2.1259 l -5.15938,0.0298 -5.15937,0.0298 v 2.09615 2.09614 h 5.15937 5.15938 z m -8.94183,0.0277 0.0783,-0.66275 3.50572,-0.01 c 3.16986,-0.009 3.50573,0.0346 3.50573,0.45444 0,0.25537 -0.0298,0.54783 -0.0661,0.64991 -0.0364,0.10208 -1.64919,0.19582 -3.58402,0.20832 l -3.51787,0.0227 0.0783,-0.66276 z m 1.26891,-0.0185 c 0,-0.14552 -0.11906,-0.26459 -0.26458,-0.26459 -0.14552,0 -0.26459,0.11907 -0.26459,0.26459 0,0.14552 0.11907,0.26458 0.26459,0.26458 0.14552,0 0.26458,-0.11906 0.26458,-0.26458 z m 5.29167,0 c 0,-0.14552 -0.11907,-0.26459 -0.26459,-0.26459 -0.14552,0 -0.26458,0.11907 -0.26458,0.26459 0,0.14552 0.11906,0.26458 0.26458,0.26458 0.14552,0 0.26459,-0.11906 0.26459,-0.26458 z m -32.80834,-0.3616 c 0,-0.16365 0.12746,-0.14595 0.3175,0.0441 0.49273,0.49273 4.347,0.42535 4.54069,-0.0794 0.11712,-0.30522 -0.0572,-0.39687 -0.75483,-0.39687 -0.82537,0 -0.93066,-0.0894 -1.16844,-0.99219 -0.64976,-2.4669 -0.76912,-3.33591 -0.54072,-3.93665 0.23672,-0.62263 0.26938,-0.62738 4.27998,-0.62336 2.2228,0.002 4.20844,0.10978 4.41254,0.239 0.28198,0.17853 0.33208,0.60643 0.20862,1.78189 -0.25117,2.39126 -0.64112,3.26578 -1.53605,3.44476 -0.4199,0.084 -0.76345,0.3164 -0.76345,0.5165 0,0.43908 3.52377,0.51988 4.61298,0.10576 0.45215,-0.1719 0.67868,-0.16842 0.67868,0.0104 0,0.16022 0.13335,0.14409 0.33073,-0.04 0.1819,-0.16966 0.33073,-0.7399 0.33073,-1.2672 v -0.95872 l 4.23334,-0.1389 4.23333,-0.1389 -4.10104,-0.13311 c -2.50171,-0.0812 0.10365,-0.15601 6.68073,-0.19183 l 10.78177,-0.0587 v -0.79375 -0.79375 l -5.88698,-0.0205 c -3.23784,-0.0113 -8.1194,-0.003 -10.84792,0.0188 l -4.96094,0.0393 v -2.28333 c 0,-1.27666 -0.10442,-2.21878 -0.23686,-2.13693 -0.13027,0.0805 -0.30106,-0.0209 -0.37953,-0.22543 -0.21292,-0.55487 -14.62773,-0.57515 -15.36212,-0.0216 -0.44321,0.33406 -0.48007,0.60143 -0.32255,2.33974 0.15115,1.66792 0.11378,1.98716 -0.24885,2.12632 -0.23468,0.0901 -2.85963,0.16375 -5.83322,0.16375 h -5.40652 l 0.0605,0.79375 0.0605,0.79375 h 5.44705 c 3.88382,0 5.53818,0.0911 5.76456,0.3175 0.17462,0.17462 0.3175,0.80962 0.3175,1.41111 0,0.60149 0.0595,1.15314 0.13229,1.2259 0.24126,0.24127 0.92604,0.13692 0.92604,-0.14111 z m -10.2526,-2.47561 c -0.47294,-0.0587 -1.24685,-0.0587 -1.71979,0 -0.47294,0.0587 -0.086,0.10672 0.85989,0.10672 0.94589,0 1.33284,-0.048 0.8599,-0.10672 z m 7.01146,-0.005 c -0.98227,-0.0509 -2.58961,-0.0509 -3.57188,0 -0.98226,0.0509 -0.17859,0.0925 1.78594,0.0925 1.96453,0 2.7682,-0.0416 1.78594,-0.0925 z m 36.24791,-8e-4 c -1.2733,-0.0485 -3.3569,-0.0485 -4.6302,0 -1.27331,0.0485 -0.23151,0.0882 2.3151,0.0882 2.54661,0 3.58841,-0.0397 2.3151,-0.0882 z m -43.78808,-2.90362 c -0.21583,-0.0771 -0.26939,-0.3625 -0.15455,-0.82368 0.15632,-0.62779 0.12834,-0.66668 -0.25345,-0.3522 -0.23604,0.19443 -0.55435,0.27614 -0.70735,0.18158 -0.17945,-0.1109 -0.17047,0.0645 0.0253,0.49409 0.1669,0.36631 0.49522,0.70917 0.72961,0.76191 0.52191,0.11743 0.8187,-0.098 0.36046,-0.2617 z m 8.61173,-0.12709 c 0.1828,-0.18281 0.3175,-1.05834 0.3175,-2.06375 0,-1.00542 0.1347,-1.88095 0.3175,-2.06375 0.23282,-0.23282 2.43248,-0.3175 8.2474,-0.3175 9.2861,0 8.8976,-0.10923 8.8976,2.50163 0,0.91179 0.13945,1.76531 0.3175,1.94337 0.48023,0.48022 1.66009,0.38055 2.17042,-0.18335 0.40927,-0.45225 0.4157,-0.58705 0.0662,-1.38907 -0.21288,-0.48851 -0.96394,-1.48422 -1.66903,-2.21267 -0.70509,-0.72846 -1.61117,-1.76462 -2.01351,-2.30258 -0.69027,-0.92297 -0.82453,-0.98255 -2.38125,-1.05679 -1.51777,-0.0724 -1.64493,-0.12493 -1.58971,-0.657 0.0744,-0.71689 -0.30505,-0.77427 -4.37834,-0.6621 -2.52593,0.0696 -2.94741,0.14031 -2.6892,0.45143 0.53436,0.64386 0.0146,0.92129 -1.72588,0.92129 -1.62933,0 -1.71701,0.0345 -2.41506,0.94967 -0.39839,0.52232 -1.41553,1.68318 -2.2603,2.57969 -1.17665,1.2487 -1.53645,1.8188 -1.53808,2.437 -0.003,0.9876 0.41361,1.44198 1.3208,1.44198 0.37835,0 0.83079,-0.14288 1.00542,-0.3175 z m 27.78307,-0.35096 c -0.0815,-0.0815 -0.22941,0.0654 -0.32877,0.32632 -0.14358,0.37708 -0.11319,0.40747 0.14812,0.14811 0.18082,-0.17948 0.26211,-0.39297 0.18065,-0.47443 z m 0.49642,0.0897 c -0.0845,-0.21106 -0.14716,-0.14837 -0.15985,0.15985 -0.0115,0.27892 0.051,0.43519 0.13896,0.34727 0.0879,-0.0879 0.0973,-0.31612 0.0209,-0.50712 z m 4.84634,0.0496 c 0,-0.31837 -1.50807,-0.31837 -2.24895,0 -0.38864,0.167 -0.16027,0.23233 0.85989,0.24599 0.76399,0.0102 1.38906,-0.10047 1.38906,-0.24599 z m 3.83646,0 c -1.18209,-0.30079 -2.51354,-0.30079 -2.51354,0 0,0.15151 0.70673,0.2512 1.65365,0.23328 1.31627,-0.0249 1.4917,-0.0725 0.85989,-0.23328 z m -44.85092,-1.38906 c 0.002,-0.25466 -0.1547,-0.46302 -0.34873,-0.46302 -0.56885,0 -0.66298,0.24931 -0.34695,0.91896 0.31364,0.66459 0.68802,0.41923 0.69568,-0.45594 z m 37.83946,0.75591 c 0,-0.0572 -0.18477,-0.17489 -0.41061,-0.26155 -0.23546,-0.0904 -0.34167,-0.046 -0.24897,0.10398 0.15538,0.25141 0.65958,0.37186 0.65958,0.15757 z m -31.48136,-3.66633 c 0.003,-0.23263 0.0617,-0.24314 0.19844,-0.0354 0.12747,0.19365 0.51314,-0.0108 1.12042,-0.59397 l 0.92605,-0.88927 -2.00643,-0.001 c -1.10353,-7.9e-4 -2.08924,0.0815 -2.19047,0.1827 -0.75277,0.75277 -0.82902,0.19592 -0.74965,-5.47473 0.0662,-4.73264 0.015,-5.7793 -0.28858,-5.8958 -0.87623,-0.33624 -0.95821,0.1881 -1.03675,6.63087 l -0.0781,6.40815 2.05052,-2.3e-4 c 1.46174,-1.7e-4 2.05168,-0.0952 2.05457,-0.33097 z m 25.13136,-5.98687 c 0,-5.20841 -0.0676,-6.37375 -0.38528,-6.63736 -0.21191,-0.17587 -0.49976,-0.24901 -0.63968,-0.16254 -0.28389,0.17546 -0.41827,9.32108 -0.14734,10.02713 0.0932,0.24283 0.2944,0.36425 0.44716,0.26985 0.16356,-0.10109 0.19904,-0.0443 0.0863,0.13812 -0.1053,0.17038 -0.30229,0.24128 -0.43776,0.15756 -0.13546,-0.0837 -0.24624,0.0632 -0.24617,0.32641 1.3e-4,0.43393 -0.22702,0.46983 -2.43195,0.38428 l -2.4321,-0.0944 0.77832,0.93516 0.77831,0.93516 2.3151,0.0191 2.31511,0.0191 v -6.3176 z m -0.77286,-6.00757 c 0.0127,-0.30823 0.0754,-0.37092 0.15985,-0.15986 0.0764,0.191 0.067,0.4192 -0.0209,0.50712 -0.0879,0.0879 -0.15045,-0.0684 -0.13896,-0.34726 z m -11.51468,6.88159 c 0.28247,-0.22907 0.34636,-0.32974 0.14198,-0.2237 -0.24432,0.12675 -0.30694,0.0882 -0.18283,-0.11267 0.10384,-0.16801 0.42691,-0.30547 0.71796,-0.30547 0.29104,0 0.46066,-0.11083 0.37694,-0.2463 -0.0837,-0.13546 -0.061,-0.30256 0.0505,-0.37132 0.11152,-0.0688 0.14072,-1.31741 0.0649,-2.77478 -0.18751,-3.604 -0.33258,-3.75692 -3.47053,-3.65826 -1.29418,0.0407 -2.47303,0.19396 -2.61967,0.3406 -0.38086,0.38086 -0.48719,1.12997 -0.53144,3.74388 -0.0607,3.58522 0.2591,4.00344 3.07091,4.0161 1.31544,0.006 2.01952,-0.11473 2.38125,-0.40808 z m -6.83309,-11.4215 c -0.47034,-0.067 -0.66802,-0.21609 -0.55289,-0.417 0.0986,-0.172 0.0858,-0.22849 -0.0284,-0.12554 -0.11415,0.10296 -0.43997,-0.0756 -0.72404,-0.39687 -0.28406,-0.32123 -0.42502,-0.40547 -0.31324,-0.18719 0.16457,0.32136 0.12937,0.33717 -0.18499,0.0831 -0.21353,-0.17259 -0.96426,-0.38295 -1.6683,-0.46747 -1.07381,-0.1289 -1.25525,-0.089 -1.12607,0.24766 0.0847,0.22072 0.0526,0.40132 -0.0714,0.40132 -0.12398,0 -0.28252,0.21834 -0.3523,0.4852 -0.11746,0.44914 0.0917,0.48505 2.81341,0.48314 1.61716,-0.001 2.61085,-0.049 2.20821,-0.10633 z m 13.66837,-0.22219 c 0.45037,-1.17364 0.22493,-1.4234 -1.22847,-1.36096 -0.93535,0.0402 -1.58799,0.2304 -1.9981,0.58235 -0.56955,0.48879 -0.57914,0.54455 -0.14787,0.8599 0.68815,0.50319 3.17312,0.44332 3.37444,-0.0813 z m 6.57839,1.83545 c -1.96123,-0.96686 -2.60617,-4.00031 -1.20463,-5.66595 0.98563,-1.17135 2.0393,-1.55986 3.58299,-1.32111 2.11721,0.32745 3.25647,1.83701 3.04527,4.03507 -0.11736,1.22134 -0.95733,2.59338 -1.58769,2.59338 -0.13055,0 -0.41596,0.1786 -0.63424,0.39688 -0.51642,0.51642 -2.11528,0.49731 -3.2017,-0.0383 z m 2.29936,-0.34429 c 0.32182,-0.2036 0.26914,-0.45094 -0.33073,-1.55311 -0.55423,-1.0183 -0.71351,-1.67209 -0.71351,-2.92878 0,-0.88982 -0.0752,-1.61784 -0.16721,-1.61784 -0.52777,0 -1.93523,1.17899 -2.21566,1.85601 -0.61814,1.49231 0.184,3.45927 1.67524,4.10793 1.00164,0.43569 1.24769,0.45476 1.75187,0.13579 z m 2.05729,-1.1388 c 0.14075,-0.1819 0.33019,-0.53908 0.42097,-0.79375 0.13947,-0.39124 10e-4,-0.46302 -0.89176,-0.46302 h -1.05683 l 0.41047,0.79375 c 0.44566,0.86181 0.72046,0.97571 1.11715,0.46302 z m -2.12065,-4.23024 c -0.0633,-0.32912 -0.11747,-0.12215 -0.1204,0.45993 -0.003,0.58209 0.0488,0.85136 0.11506,0.5984 0.0662,-0.25297 0.0686,-0.72922 0.005,-1.05833 z m 1.93279,0.86287 c -0.15398,-0.28771 -0.50226,-0.64207 -0.77395,-0.78748 -0.42343,-0.22661 -0.51051,-0.15188 -0.60958,0.5231 -0.10865,0.74035 -0.0623,0.78748 0.77396,0.78748 0.8041,0 0.86264,-0.0502 0.60957,-0.5231 z m -41.15193,3.06466 c -0.502,-0.76614 -0.28622,-1.90819 0.43328,-2.29326 0.27431,-0.1468 0.49874,-0.4824 0.49874,-0.74576 0,-1.20009 2.10808,-1.9043 3.10543,-1.03738 0.25654,0.22299 0.79386,0.48323 1.19404,0.57831 0.40019,0.0951 0.72761,0.345 0.72761,0.55539 0,0.21039 0.23672,0.50921 0.52604,0.66406 0.74748,0.40003 0.94562,1.45503 0.42307,2.25255 -0.41898,0.63945 -0.52444,0.65953 -3.46265,0.65953 -2.90484,0 -3.04772,-0.0263 -3.44556,-0.63344 z m 2.51951,-0.131 c -0.77829,-0.21476 -0.9756,-1.14036 -0.45747,-2.14597 0.26141,-0.50736 0.54862,-0.66146 1.23278,-0.66146 1.23612,0 1.66396,0.39926 1.70394,1.59008 0.0294,0.87649 -0.0596,1.04829 -0.62716,1.21066 -0.513,0.14675 -0.38147,0.19514 0.586,0.21559 0.97792,0.0207 1.30644,-0.0838 1.52041,-0.48362 0.33834,-0.6322 0.11426,-1.27342 -0.51479,-1.47307 -0.26188,-0.0831 -0.54053,-0.39729 -0.6192,-0.69815 -0.0787,-0.30086 -0.25614,-0.47714 -0.39435,-0.39172 -0.13821,0.0854 -0.55196,-0.0812 -0.91944,-0.37025 -1.13294,-0.89118 -2.56905,-0.56503 -2.56905,0.58344 0,0.26071 -0.23812,0.62272 -0.52916,0.80448 -0.51027,0.31867 -0.73201,1.49965 -0.35278,1.87888 0.097,0.097 0.72209,0.16452 1.38906,0.15001 0.93601,-0.0203 1.06176,-0.068 0.55121,-0.2089 z m 2.11667,-0.72792 c 0,-0.0285 -0.0714,-0.23801 -0.15874,-0.46553 -0.12161,-0.31691 -0.27632,-0.35074 -0.66146,-0.14462 -0.27649,0.14798 -0.50454,0.17556 -0.50677,0.0613 -0.002,-0.11426 -0.11946,-0.0291 -0.26053,0.18913 -0.1981,0.30654 -0.26163,0.21621 -0.27913,-0.39687 -0.0195,-0.684 -0.0541,-0.72058 -0.25004,-0.26459 -0.40287,0.93754 -0.28593,1.07303 0.92605,1.07303 0.65484,0 1.19062,-0.0233 1.19062,-0.0519 z m 16.83884,-1.02118 c -0.21828,-0.21828 -0.64351,-0.39687 -0.94494,-0.39687 -0.52187,0 -0.59254,-0.0929 -0.6539,-0.8599 -0.0145,-0.1819 -0.17529,-0.48806 -0.35719,-0.68036 -0.44867,-0.4743 -0.41675,-1.08917 0.0661,-1.27448 0.21828,-0.0838 0.39688,-0.32518 0.39688,-0.53648 0,-0.2113 -0.12583,-0.30641 -0.27962,-0.21136 -0.51119,0.31593 -1.47755,-0.1197 -1.79084,-0.8073 -0.24988,-0.54843 -0.23019,-0.79884 0.1028,-1.30705 0.53529,-0.81696 1.07517,-1.0079 1.78839,-0.63252 0.73424,0.38646 0.96391,0.73744 0.96897,1.4808 0.005,0.67394 0.39871,0.7983 0.6289,0.19844 0.19937,-0.51957 0.81652,-0.5052 1.35322,0.0315 0.23561,0.2356 0.49789,0.35885 0.58286,0.27389 0.30225,-0.30225 1.19314,0.40122 1.0759,0.84955 -0.0645,0.2465 0.0434,0.59819 0.23965,0.78153 0.45968,0.4294 0.45031,0.7104 -0.04,1.20073 -0.21828,0.21828 -0.39688,0.64351 -0.39688,0.94494 0,0.37798 -0.17009,0.54807 -0.54806,0.54807 -0.30144,0 -0.72666,0.17859 -0.94494,0.39687 -0.21828,0.21828 -0.49893,0.39688 -0.62366,0.39688 -0.12473,0 -0.40538,-0.1786 -0.62366,-0.39688 z m 0.88824,-0.82243 c 0,-0.32532 0.16078,-0.38521 0.68257,-0.25424 0.59079,0.14827 0.66039,0.1014 0.51757,-0.34856 -0.11018,-0.34716 -0.007,-0.60921 0.30962,-0.78881 0.4528,-0.25658 0.45136,-0.28612 -0.0314,-0.64283 -0.32972,-0.24364 -0.4439,-0.53576 -0.32773,-0.83849 0.13085,-0.34099 0.0739,-0.42456 -0.21393,-0.31409 -0.21572,0.0828 -0.58726,-0.0445 -0.82564,-0.28291 -0.4015,-0.4015 -0.45222,-0.39982 -0.68875,0.0228 -0.16578,0.29623 -0.43347,0.39972 -0.7632,0.29507 -0.39948,-0.12679 -0.47081,-0.0646 -0.33425,0.29124 0.11073,0.28856 -0.01,0.58787 -0.33239,0.82634 -0.48276,0.35671 -0.4842,0.38625 -0.0314,0.64283 0.32324,0.18317 0.42039,0.43978 0.3046,0.80459 -0.14328,0.45145 -0.0825,0.50788 0.38659,0.35899 0.38063,-0.1208 0.60695,-0.0454 0.71588,0.23847 0.20797,0.54194 0.63185,0.53494 0.63185,-0.0104 z m -0.99946,-0.78007 c -0.7358,-0.51538 -0.7511,-1.21062 -0.0408,-1.85344 0.49963,-0.45216 0.60899,-0.46071 1.25677,-0.0983 0.92775,0.51903 1.04902,1.39475 0.26883,1.94121 -0.74064,0.51877 -0.75903,0.5189 -1.48481,0.0105 z m 1.26405,-0.91104 c 0,-0.35278 -0.17639,-0.52917 -0.52917,-0.52917 -0.35278,0 -0.52917,0.17639 -0.52917,0.52917 0,0.35278 0.17639,0.52917 0.52917,0.52917 0.35278,0 0.52917,-0.17639 0.52917,-0.52917 z m 5.72515,1.19063 c 0.0838,-0.21829 0.19909,-0.39688 0.25628,-0.39688 0.0572,0 0.10398,0.17859 0.10398,0.39688 0,0.21828 -0.11532,0.39687 -0.25628,0.39687 -0.14095,0 -0.18774,-0.17859 -0.10398,-0.39687 z"
         style="fill:#000000;stroke-width:1" />
      <ellipse
         ry="4.1080685"
         rx="5.0157242"
         cy="116.42912"
         cx="52.047409"
         id="path270"
         style="opacity:1;vector-effect:none;fill:#ffffff;fill-opacity:1;stroke:none;stroke-width:0.26499999;stroke-linecap:butt;stroke-linejoin:miter;stroke-miterlimit:4;stroke-dasharray:none;stroke-dashoffset:0;stroke-opacity:1" />
      <ellipse
         ry="4.1080685"
         rx="5.0157242"
         cy="112.82932"
         cx="69.630806"
         id="path270-3"
         style="opacity:1;vector-effect:none;fill:#ffffff;fill-opacity:1;stroke:none;stroke-width:0.26499999;stroke-linecap:butt;stroke-linejoin:miter;stroke-miterlimit:4;stroke-dasharray:none;stroke-dashoffset:0;stroke-opacity:1" />
      <ellipse
         ry="4.1080685"
         rx="5.0157242"
         cy="116.43959"
         cx="87.309418"
         id="path270-6"
         style="opacity:1;vector-effect:none;fill:#ffffff;fill-opacity:1;stroke:none;stroke-width:0.26499999;stroke-linecap:butt;stroke-linejoin:miter;stroke-miterlimit:4;stroke-dasharray:none;stroke-dashoffset:0;stroke-opacity:1" />
      <text
         transform="rotate(-46.931601)"
         id="text297"
         y="120.68329"
         x="-52.267536"
         style="font-style:normal;font-weight:normal;font-size:9.34550285px;line-height:1.25;font-family:sans-serif;letter-spacing:0px;word-spacing:0px;fill:#000000;fill-opacity:1;stroke:none;stroke-width:0.26458332"
         xml:space="preserve"><tspan
           style="font-weight:bold;fill:#000000;stroke-width:0.26458332"
           y="120.68329"
           x="-52.267536"
           id="tspan295"
           sodipodi:role="line">?</tspan></text>
      <text
         transform="rotate(44.62246)"
         id="text297-7"
         y="24.88496"
         x="141.13487"
         style="font-style:normal;font-weight:normal;font-size:9.34550285px;line-height:1.25;font-family:sans-serif;letter-spacing:0px;word-spacing:0px;fill:#000000;fill-opacity:1;stroke:none;stroke-width:0.26458332"
         xml:space="preserve"><tspan
           style="font-weight:bold;fill:#000000;stroke-width:0.26458332"
           y="24.88496"
           x="141.13487"
           id="tspan295-5"
           sodipodi:role="line">?</tspan></text>
      <text
         transform="rotate(1.2632466)"
         id="text297-7-3"
         y="114.56773"
         x="69.583511"
         style="font-style:normal;font-weight:normal;font-size:9.34550285px;line-height:1.25;font-family:sans-serif;letter-spacing:0px;word-spacing:0px;fill:#000000;fill-opacity:1;stroke:none;stroke-width:0.26458332"
         xml:space="preserve"><tspan
           style="font-weight:bold;fill:#000000;stroke-width:0.26458332"
           y="114.56773"
           x="69.583511"
           id="tspan295-5-5"
           sodipodi:role="line">?</tspan></text>
    </g>
    <circle
       style="opacity:1;vector-effect:none;fill:none;fill-opacity:1;stroke:#000000;stroke-width:0.76500005;stroke-linecap:butt;stroke-linejoin:miter;stroke-miterlimit:4;stroke-dasharray:none;stroke-dashoffset:0;stroke-opacity:1"
       id="path335-6"
       cx="69.91114"
       cy="127.75329"
       r="29.137154" />
  </g>
</svg>
